<svg xmlns="http://www.w3.org/2000/svg" width="277" height="277" fill="none" viewBox="0 0 277 277"><path fill="url(#a)" d="M8 137c0 34.743 13.75 68.064 38.223 92.631C70.696 254.198 103.889 268 138.5 268c34.611 0 67.804-13.802 92.277-38.369C255.251 205.064 269 171.743 269 137s-13.749-68.064-38.223-92.631C206.304 19.802 173.111 6 138.5 6c-34.611 0-67.804 13.802-92.277 38.369C21.749 68.936 8 102.257 8 137"/><path fill="#fff" d="M222.728 82.172 165.734 219.99c-2.517 6.077-8.27 10.01-14.922 10.01h-.54c-6.832-.179-12.585-4.469-14.742-10.904l-12.945-37.538c-1.079-3.217.719-6.792 3.955-7.865 3.236-1.072 6.832.715 7.911 3.933l12.945 37.538c.719 2.145 2.517 2.323 3.236 2.323.719 0 2.517-.178 3.416-2.145l56.993-137.818c.899-1.966-.359-3.396-.719-3.932-.359-.536-1.977-1.609-3.955-.715L67.929 129.54c-1.978.894-2.158 2.682-2.158 3.397 0 .715.36 2.502 2.337 3.217l44.049 15.015 57.173-48.263c2.697-2.324 6.652-1.966 8.81.715 2.337 2.682 1.978 6.614-.719 8.759l-59.87 50.408c-1.619 1.43-3.956 1.788-6.113 1.073l-47.465-16.088c-6.472-2.145-10.787-7.865-10.967-14.658-.18-6.792 3.776-12.691 10.068-15.372l138.618-56.486c6.113-2.503 12.945-1.251 17.62 3.575 4.674 4.469 5.933 11.261 3.416 17.339Z"/><path fill="#8A3713" d="M138.5 277C62.203 277 0 214.796 0 138.5 0 62.203 62.204 0 138.5 0 214.796 0 277 62.204 277 138.5c0 76.296-62.204 138.5-138.5 138.5m0-267.28C67.55 9.72 9.72 67.55 9.72 138.5c0 70.951 57.83 128.781 128.78 128.781 70.951 0 128.781-57.83 128.781-128.781 0-70.95-57.83-128.78-128.781-128.78Z"/><defs><linearGradient id="a" x1="8" x2="269" y1="137" y2="137" gradientUnits="userSpaceOnUse"><stop offset=".19" stop-color="#E23A1C"/><stop offset="1" stop-color="#FEFF00"/></linearGradient></defs></svg>